<?xml version="1.0" standalone="no"?>
<!DOCTYPE svg PUBLIC "-//W3C//DTD SVG 20010904//EN"
 "http://www.w3.org/TR/2001/REC-SVG-20010904/DTD/svg10.dtd">
<svg version="1.0" xmlns="http://www.w3.org/2000/svg"
 width="300.000000pt" height="300.000000pt" viewBox="0 0 300.000000 300.000000"
 preserveAspectRatio="xMidYMid meet">
<metadata>
Created by potrace 1.11, written by Peter Selinger 2001-2013
</metadata>
<g transform="translate(0.000000,300.000000) scale(0.100000,-0.100000)"
fill="#000000" stroke="none">
<path d="M1395 2981 c-3 -2 -24 -5 -47 -6 -146 -9 -349 -70 -513 -153 -303
-155 -551 -419 -686 -733 -39 -90 -84 -234 -95 -304 -3 -22 -7 -42 -9 -46 -16
-25 -25 -383 -10 -397 4 -4 132 -7 285 -7 l279 -1 -6 36 c-8 49 -8 196 1 250
l6 45 -116 -1 -116 -1 7 51 c16 121 91 301 183 441 57 85 193 224 284 288 342
241 791 279 1164 97 267 -130 467 -346 575 -620 18 -47 35 -87 37 -90 2 -2 77
-5 168 -5 l165 -1 -5 31 c-12 63 -55 183 -100 279 -143 306 -406 568 -716 714
-128 60 -313 112 -455 128 -69 7 -274 11 -280 5z"/>
<path d="M1378 2319 c-16 -4 -28 -5 -28 -2 0 3 -7 0 -15 -7 -8 -7 -15 -10 -15
-7 0 3 -15 1 -32 -4 -18 -6 -41 -12 -50 -14 -28 -6 -157 -73 -207 -107 -56
-39 -159 -142 -199 -200 -135 -196 -185 -444 -132 -658 6 -25 12 -52 14 -61
11 -44 70 -171 96 -205 16 -22 30 -43 30 -48 0 -14 177 -184 199 -191 12 -3
21 -11 21 -16 0 -6 5 -7 10 -4 6 3 10 2 10 -3 0 -7 59 -42 80 -47 3 -1 22 -9
43 -18 88 -38 185 -56 302 -56 101 0 125 2 125 11 0 4 6 5 14 2 8 -3 34 0 57
7 24 7 53 14 63 16 11 2 25 8 33 14 7 6 13 9 13 5 0 -9 153 74 166 90 6 8 16
14 22 14 33 0 242 247 242 287 0 6 4 13 9 15 13 5 69 174 79 238 8 55 7 217
-2 255 -2 11 -5 23 -5 28 -1 4 -183 7 -406 7 l-405 0 0 -163 0 -163 235 1 235
0 -5 -23 c-7 -39 -65 -124 -121 -179 -176 -171 -460 -186 -654 -33 -55 43 -72
61 -115 126 -127 191 -99 461 64 623 62 62 75 71 146 106 94 45 194 58 300 40
54 -9 55 -9 99 -28 21 -9 40 -17 43 -17 11 0 101 -67 127 -94 l28 -30 177 -1
c97 -1 181 0 188 3 7 2 1 23 -19 60 -113 216 -327 375 -573 428 -45 9 -256 12
-287 3z"/>
<path d="M2425 1499 l0 -167 90 2 c133 3 135 2 128 -48 -7 -54 -68 -236 -100
-301 -78 -155 -229 -333 -365 -429 -126 -89 -331 -177 -445 -192 -19 -2 -40
-7 -45 -10 -16 -10 -258 -12 -323 -3 -104 14 -128 20 -219 50 -295 98 -542
315 -675 594 -21 44 -44 98 -52 120 -7 22 -16 44 -20 48 -5 7 -171 11 -311 8
l-26 -1 14 -52 c8 -29 17 -60 19 -68 19 -76 101 -253 159 -344 20 -31 36 -61
36 -66 0 -6 4 -10 8 -10 5 0 22 -19 39 -42 41 -57 165 -184 233 -240 133 -108
285 -194 450 -253 70 -24 216 -62 250 -63 8 -1 42 -5 75 -9 115 -15 344 -7
447 16 24 6 54 12 68 15 139 28 370 136 513 239 230 166 406 391 510 653 38
95 72 211 83 284 3 25 9 56 11 70 7 37 13 324 7 346 -5 18 -19 19 -282 19
l-277 0 0 -166z"/>
</g>
</svg>
